<svg xmlns="http://www.w3.org/2000/svg" viewBox="0 0 1279.09 600.19"><title>Paul - logo</title><path d="M841.39,1319.35c-14.32-15.5-13.57-40.17-19-59.82-10-59-15.5-118.75-22.85-178.16-9.76-94.61-27.52-188-49.53-280.5-10-20.6,8.55-47.23,31.17-34.58,4.83,2.84,9.15,7.9,10.37,13.49,14.55,66.11,30.5,132,40.24,199,11.65,78.26,18.67,157.1,29.34,235.47,3.12,29.48,10.32,58.22,16.71,87C878.56,1319.33,855.34,1331.17,841.39,1319.35Z" transform="translate(-726.46 -723.9)" fill="#fffaf0"/><path d="M726.46,1188.5c-.22-15.73,14.74-24,28.95-23,28.64-2,57-6.4,85.19-12a606.71,606.71,0,0,0,75.09-20.76c91.52-33,199.72-91.17,233.3-188.3,5-51.78-25.61-106.09-67.36-135.6-46.81-33.71-105.28-43.58-161.85-38.42-44.66,5.82-94.37,5.67-134.28,28.1-29,36.86-70.13-19.59-14.45-44.35,130.66-47.75,321.2-52.47,397.55,86.12,35.4,61.68,37.08,128.76-11.08,184.17-70.93,90.16-180.66,142.64-289.38,169.21-39.14,9-79,15.31-119.1,17.39C736.82,1211.76,726.43,1200.34,726.46,1188.5Z" transform="translate(-726.46 -723.9)" fill="#fffaf0"/><path d="M1167.26,1242.18c63.12-8.33,86.38-80.88,101.76-133.76-12,.75-15.72-12-25.34-15.46-36.7-9.36-73.75,13.38-97.82,39.65C1114.84,1163.23,1107.48,1244.76,1167.26,1242.18Zm-12,44.85c-89.29-7.78-97.21-122.58-47.53-179.23,38.5-47.34,116-86,171.63-45.78q2.43-13.82,4.32-27.71c3.69-28.93,49-22.86,44.75,6.13C1313.66,1138.06,1278.84,1289.34,1155.29,1287Z" transform="translate(-726.46 -723.9)" fill="#fffaf0"/><path d="M1804,1135.18c36.2-69.52,73-140.31,90.53-217.21,5.27-28.41,9.4-57.94,4-86.64-7.79-43.53-41.06-61.3-71.93-23.33C1760.25,880,1777.88,1047,1804,1135.18Zm-281.21,178.65c-39.63-8.95-54.68-52-67.49-85.92-17.36,44.92-58.82,95.54-112.45,81.8-60.33-21.25-64.76-98.75-63.32-153.28.81-25.93,3.76-51.73,5.6-77.6,1.58-19.17-4.28-50.32,23.38-51.08,32.63,2.1,21.11,42.09,20.88,64-3,34.85-6.54,69.82-4.23,104.82,10.75,117.43,75.6,67.82,98.5-12,21.93-51.59,10-109.72,25.62-162.49a23,23,0,0,1,28.54-9.51c30.9,14.7,8.94,99.92,4.78,128.48,1.41,24.45,28.85,164.73,68,119.17,21.36-28.42,28-64.74,36.26-98.56,8.7-38.19,16.77-76.51,25.33-114.73,5.58-17.93,4.83-46.85,28-50.77,42.77.19,20.63,57,21.16,83.38-7.8,54.17-13.18,116,27.36,159.18,36.5,49.63,69.19-24.47,87.38-53.25-45.45-95-61.08-289.36-3.32-380.69,66.49-110.32,176.33-65.38,173.42,56.27-3.46,117.52-64.88,223.19-118.31,324.72,22.33,34.44,59,62.94,101.09,65.6,30,8.27,44-35.18,69.87-12.8,20.34,22.37-10.49,44.36-30,52.49-61,20.29-127.38-15.34-165.79-62.5-57.79,108.5-140,89.28-181.94-17.46C1608.82,1256.53,1581.25,1325.7,1522.81,1313.83Z" transform="translate(-726.46 -723.9)" fill="#fffaf0"/></svg>